PathFileType	4	(X/Y/Z)	 s07c0101.trc
DataRate	CameraRate	NumFrames	NumMarkers	Units	OrigDataRate	OrigDataStartFrame	OrigNumFrames
200	200	6	48	mm	200	1501	2000
Frame#	Time	racr			lacr			c7			jug			rlel			rdr			llel			ldr			s2			lic			ric			lasi			rasi			rpsi			lpsi			rgt			lgt			rth1			rth2			rth3			rth4			rlfc			rmfc			rsh1			rsh2			rsh3			rsh4			rlmal			rcal			rtoe			rmt5			lth1			lth2			lth4			lth3			llfc			lmfc			lsh1			lsh2			lsh3			lsh4			llmal			lcal			ltoe			lmt5			SBIKE			LBIKE			RBIKE			
		X1	Y1	Z1	X2	Y2	Z2	X3	Y3	Z3	X4	Y4	Z4	X5	Y5	Z5	X6	Y6	Z6	X7	Y7	Z7	X8	Y8	Z8	X9	Y9	Z9	X10	Y10	Z10	X11	Y11	Z11	X12	Y12	Z12	X13	Y13	Z13	X14	Y14	Z14	X15	Y15	Z15	X16	Y16	Z16	X17	Y17	Z17	X18	Y18	Z18	X19	Y19	Z19	X20	Y20	Z20	X21	Y21	Z21	X22	Y22	Z22	X23	Y23	Z23	X24	Y24	Z24	X25	Y25	Z25	X26	Y26	Z26	X27	Y27	Z27	X28	Y28	Z28	X29	Y29	Z29	X30	Y30	Z30	X31	Y31	Z31	X32	Y32	Z32	X33	Y33	Z33	X34	Y34	Z34	X35	Y35	Z35	X36	Y36	Z36	X37	Y37	Z37	X38	Y38	Z38	X39	Y39	Z39	X40	Y40	Z40	X41	Y41	Z41	X42	Y42	Z42	X43	Y43	Z43	X44	Y44	Z44	X45	Y45	Z45	X46	Y46	Z46	X47	Y47	Z47	X48	Y48	Z48	
1501	7.5050	504.869173	1406.052700	-90.845555	489.814411	1408.575921	-360.082778	468.464095	1456.182718	-221.780653	415.793537	1312.329182	-228.938497	511.239021	1092.313400	69.641250	716.117477	913.956759	-45.729225	504.734731	1100.379105	-518.489727	718.367948	916.759762	-406.955685	-122.147931	1217.681659	-204.798257	19.492662	1296.966220	-352.780561	64.230860	1241.416294	-70.100722	52.985359	1219.104475	-341.547275	78.967005	1193.664255	-92.168121	-88.975229	1253.293294	-151.576335	-93.322574	1276.592570	-257.095642	18.025427	1115.402024	-35.653812	-24.852468	1139.748992	-395.971984	137.535685	1026.535209	-38.933790	214.914852	987.093360	-52.050938	265.442259	917.753708	-52.890519	234.768964	1012.093077	-71.255873	341.544956	803.307740	-86.056487	327.880993	789.565323	-191.646648	238.843324	697.507861	-52.063066	205.066706	621.517963	-75.512876	132.659676	572.729418	-70.367485	218.891891	611.077391	-113.039133	39.675469	476.466645	-68.355508	-26.767958	506.685092	-97.910212	115.454940	254.863247	-123.074841	46.538586	298.957819	-50.613901	66.346725	1045.540279	-405.147511	146.764997	1008.478529	-405.513625	169.690009	1036.111350	-398.392040	199.169892	936.716034	-400.633451	322.983813	814.607572	-371.085794	314.152577	790.935956	-278.210301	290.232575	670.431660	-398.440100	292.300297	585.787784	-380.907602	308.384579	507.997220	-374.533538	291.736361	587.594449	-338.709962	214.033055	372.819098	-394.523149	149.540664	320.421869	-365.198755	436.848852	354.307363	-349.738600	365.208592	315.217033	-417.637493	-260.376240	980.268350	-228.961509	-76.283604	83.474105	-435.387151	-82.093156	79.362166	-37.945827	
1502	7.5100	503.557716	1407.539188	-89.718021	489.959244	1409.569488	-359.547072	467.555364	1457.721805	-221.144013	415.334669	1313.776789	-228.592195	511.612329	1093.240614	69.631340	716.295836	914.029514	-45.740649	505.747610	1101.570640	-518.016029	718.558361	916.753328	-406.830079	-121.812298	1216.930530	-207.308627	20.630353	1295.486804	-355.315282	63.520191	1241.064196	-72.179614	54.046104	1217.699516	-343.682020	78.576152	1193.797702	-93.915162	-89.275226	1252.726086	-154.001980	-92.703848	1275.592899	-260.039298	18.111356	1115.924013	-37.352678	-24.686681	1137.965807	-397.631586	139.253896	1029.558638	-39.256190	217.745616	992.075520	-52.179494	270.039497	924.143575	-52.688970	236.826640	1017.332902	-71.701533	348.185396	811.419853	-86.013187	333.571520	795.918046	-191.376027	246.330980	706.706943	-52.827847	211.139612	630.020706	-75.600404	138.460847	581.752384	-70.441919	224.952409	619.516173	-113.044119	45.600875	486.388215	-67.872823	-20.432748	518.260537	-98.145783	114.442098	262.354362	-124.291360	47.862167	308.962941	-50.526667	64.446093	1041.814898	-406.996208	143.892178	1003.152355	-407.512312	167.447973	1030.187244	-400.281190	194.400165	930.097062	-402.744810	315.226596	805.056488	-372.900311	305.167048	780.301751	-280.294179	283.507177	660.351818	-400.177110	287.118515	575.783225	-382.475980	305.981918	497.210747	-374.731315	286.941804	577.701167	-340.321928	212.230132	361.496086	-394.908495	147.992017	309.037486	-365.431430	435.412278	343.790724	-349.900764	363.878487	304.514779	-417.913570	-260.386150	980.284647	-229.157171	-76.279322	83.453016	-435.408991	-82.080145	79.360963	-37.978288	
1503	7.5150	502.218047	1409.009732	-88.464100	490.046061	1410.625790	-359.033900	466.573720	1459.260527	-220.397271	414.900944	1315.192058	-228.160747	512.012432	1094.038530	69.489439	716.461153	914.141062	-45.820969	506.864607	1103.023627	-517.605194	718.744837	916.745192	-406.719358	-121.422014	1216.292027	-209.894881	21.737563	1294.208935	-357.754858	62.604505	1240.982434	-74.274952	55.224103	1216.388842	-345.792965	78.220148	1193.991559	-95.713139	-88.754816	1252.109674	-157.070033	-91.973999	1274.669238	-262.958093	18.312993	1116.705676	-38.639924	-24.351982	1136.173647	-399.292899	140.682593	1032.748077	-39.903428	220.115198	997.059077	-52.451131	274.177025	930.596305	-52.562393	238.568523	1022.844872	-72.060133	354.972534	819.644670	-85.834271	340.588728	803.677008	-191.719128	253.774730	715.954322	-53.595410	217.424569	638.763978	-75.652362	144.701139	590.738256	-70.401674	231.193159	628.091868	-113.054469	51.710553	496.545866	-67.600745	-13.856882	530.160237	-97.649428	115.332192	270.709906	-124.096478	49.726782	318.905373	-50.542267	62.609630	1038.191602	-408.854414	141.044055	997.957775	-409.562334	165.288541	1024.290997	-402.238516	189.645592	923.508628	-404.707874	307.160488	795.351448	-374.731262	299.532111	771.986786	-282.473816	276.184873	650.148715	-401.954810	281.256295	565.751965	-384.288331	300.884295	486.377164	-375.587710	281.781779	567.628937	-342.078274	210.074946	350.412062	-395.298926	145.967729	297.947781	-365.578400	433.618744	334.236469	-350.984280	361.937797	293.812267	-417.977922	-260.379175	980.288882	-229.436762	-76.259962	83.403583	-435.439652	-82.096484	79.366379	-37.982109	
1504	7.5200	500.772952	1410.391415	-87.053189	490.122309	1411.758761	-358.294380	465.610258	1460.814807	-219.510712	414.288493	1316.699430	-227.657979	512.410554	1094.688781	69.244995	716.598199	914.216415	-45.962192	508.193158	1104.510489	-517.053365	718.971099	916.688321	-406.631455	-120.879661	1215.670474	-212.575930	23.020468	1292.909476	-360.284839	61.576291	1241.468639	-75.535132	56.447029	1215.028020	-347.878200	77.797008	1194.429294	-97.421725	-88.654211	1251.597624	-159.958577	-91.068902	1273.771805	-265.915311	18.454945	1117.689102	-39.636949	-23.839641	1134.306071	-400.961162	141.806788	1035.953827	-40.585102	222.109039	1002.336531	-52.770695	277.626075	937.095947	-52.582545	240.106580	1028.890283	-71.249554	361.688743	828.353902	-85.554773	347.527172	812.255962	-190.590231	261.146617	725.231907	-54.365395	223.811503	647.538657	-75.672033	150.871438	599.984580	-70.255647	237.302792	636.821052	-113.112201	57.635961	506.214890	-67.628071	-7.648078	540.901119	-98.152069	116.954544	279.224530	-124.289830	52.249916	328.722697	-50.682393	60.838319	1034.575210	-410.683440	138.199284	992.509411	-411.537062	163.090210	1018.250609	-404.221669	184.744378	916.888881	-406.648272	298.687882	784.964133	-376.110197	291.524980	762.669059	-284.434078	268.398380	640.127743	-403.905165	274.919363	555.861357	-386.162997	293.462762	475.588367	-377.009129	276.269550	557.743959	-343.929143	207.341031	339.379868	-395.605357	143.438920	287.043893	-365.890870	430.777663	323.126345	-350.246366	359.392541	283.283285	-418.059985	-260.421519	980.150031	-229.318148	-76.264221	83.385928	-435.454261	-82.095857	79.397220	-38.010049	
1505	7.5250	499.333153	1411.711897	-85.475812	490.219689	1412.983444	-357.367015	464.701737	1462.278657	-218.422039	413.783818	1318.100371	-226.968925	512.684531	1095.421214	69.000019	716.706700	914.299900	-46.119170	509.637393	1106.165702	-516.475393	719.197857	916.567233	-406.558361	-120.265265	1215.064431	-215.280500	24.470715	1291.668707	-362.850988	60.525628	1241.737570	-77.237859	57.926099	1213.653728	-349.979465	77.261113	1195.008683	-99.046757	-88.686051	1251.323172	-162.677607	-90.314492	1273.054010	-268.656345	16.710012	1118.369887	-42.220228	-23.196687	1132.320788	-402.568450	142.652654	1039.217875	-41.615086	223.835668	1007.656730	-53.083256	280.765730	943.770414	-52.672976	241.417712	1034.360581	-72.250465	368.204276	836.854198	-85.816962	354.304601	821.121316	-190.583147	268.418683	734.521610	-55.137445	230.246059	656.471674	-75.649458	157.013149	609.339018	-70.102531	243.926261	645.943477	-112.901345	63.408683	515.899872	-67.835912	-0.801313	551.586799	-98.551686	119.320039	287.979461	-124.211277	55.426521	338.465645	-50.680436	59.123982	1030.892815	-412.460587	135.332794	986.887993	-413.442673	160.891052	1011.914751	-406.112296	179.853572	909.999940	-408.286741	290.253227	775.307602	-378.183679	283.061218	753.217318	-286.326739	260.546987	630.036749	-405.548908	268.432051	545.739844	-387.879557	284.088371	464.936250	-378.901980	270.195548	548.026390	-345.454528	203.633120	328.803457	-396.107623	140.311085	276.120908	-366.039476	427.365508	312.987006	-350.281176	356.034017	273.041609	-418.105818	-260.392625	980.206630	-229.628050	-76.257432	83.357872	-435.454109	-82.105859	79.422554	-38.019426	
1506	7.5300	497.802599	1412.945097	-83.671261	490.263196	1414.253453	-356.310833	463.867082	1463.668587	-217.146280	413.120364	1319.509727	-226.069231	512.314592	1096.268841	69.602019	716.779038	914.403519	-46.345678	511.191113	1107.910654	-515.867603	719.415547	916.389210	-406.529762	-119.588244	1214.471851	-218.067537	26.035310	1290.426212	-365.343955	59.491751	1242.559896	-78.984960	59.373331	1212.161019	-351.844970	76.747342	1195.655632	-100.663086	-88.530735	1250.831581	-165.744826	-88.999839	1271.969684	-272.029245	16.495686	1119.724790	-43.471065	-22.344716	1130.246183	-404.185832	142.997375	1042.898708	-42.471271	225.270535	1013.069405	-53.416068	283.595291	950.496976	-52.816611	242.491431	1040.296025	-72.166397	374.116731	845.816128	-85.598131	360.744094	830.504307	-189.866617	275.562970	743.805342	-55.911199	236.551911	665.564039	-75.578033	163.316395	618.419013	-69.983026	250.305991	654.970747	-112.844137	69.484869	525.539103	-67.711792	5.798630	561.920685	-98.694606	122.367942	296.773622	-124.394919	59.307530	348.194188	-50.728637	57.449471	1027.108513	-414.181810	132.482621	981.001322	-415.309090	158.825814	1005.300340	-407.896058	174.837329	902.927131	-409.961950	281.661280	765.640670	-379.924222	274.551869	743.867696	-288.236237	253.101974	620.220568	-406.946614	261.690064	536.252551	-389.127854	273.132175	454.512707	-381.172667	263.931333	538.404528	-346.708385	199.316849	318.510478	-396.172339	136.232004	266.104296	-366.006020	423.468206	302.981167	-350.521457	354.843793	256.337485	-408.037862	-260.372769	980.287022	-230.006477	-76.257163	83.338695	-435.474313	-82.099317	79.442242	-38.018764	
